<?xml version="1.0" encoding="UTF-8" standalone="no"?>
<!DOCTYPE svg PUBLIC "-//W3C//DTD SVG 1.1//EN"
 "http://www.w3.org/Graphics/SVG/1.1/DTD/svg11.dtd">
<!-- Generated by graphviz version 13.0.0 (20250608.1624)
 -->
<!-- Title: RenderGraphInitFlow Pages: 1 -->
<svg width="400pt" height="1407pt"
 viewBox="0.00 0.00 400.00 1407.00" xmlns="http://www.w3.org/2000/svg" xmlns:xlink="http://www.w3.org/1999/xlink">
<g id="graph0" class="graph" transform="scale(1 1) rotate(0) translate(4 1402.75)">
<title>RenderGraphInitFlow</title>
<polygon fill="white" stroke="none" points="-4,4 -4,-1402.75 396,-1402.75 396,4 -4,4"/>
<text xml:space="preserve" text-anchor="middle" x="196" y="-1383.35" font-family="Consolas" font-size="12.00">Decker RenderGraph Init + Execute Flow</text>
<g id="clust1" class="cluster">
<title>cluster_startup</title>
<path fill="none" stroke="#d8e2f0" d="M20,-322.25C20,-322.25 372,-322.25 372,-322.25 378,-322.25 384,-328.25 384,-334.25 384,-334.25 384,-1358 384,-1358 384,-1364 378,-1370 372,-1370 372,-1370 20,-1370 20,-1370 14,-1370 8,-1364 8,-1358 8,-1358 8,-334.25 8,-334.25 8,-328.25 14,-322.25 20,-322.25"/>
<text xml:space="preserve" text-anchor="middle" x="196" y="-1354.6" font-family="Consolas" font-size="12.00">Startup / Build Graph</text>
</g>
<g id="clust2" class="cluster">
<title>cluster_frame</title>
<path fill="none" stroke="#d8e2f0" d="M128,-8C128,-8 326,-8 326,-8 332,-8 338,-14 338,-20 338,-20 338,-291.25 338,-291.25 338,-297.25 332,-303.25 326,-303.25 326,-303.25 128,-303.25 128,-303.25 122,-303.25 116,-297.25 116,-291.25 116,-291.25 116,-20 116,-20 116,-14 122,-8 128,-8"/>
<text xml:space="preserve" text-anchor="middle" x="227" y="-287.85" font-family="Consolas" font-size="12.00">Per Frame Execute</text>
</g>
<!-- A -->
<g id="node1" class="node">
<title>A</title>
<path fill="#f7faff" stroke="#6a7a99" d="M227.5,-1341.25C227.5,-1341.25 130.5,-1341.25 130.5,-1341.25 124.5,-1341.25 118.5,-1335.25 118.5,-1329.25 118.5,-1329.25 118.5,-1317.25 118.5,-1317.25 118.5,-1311.25 124.5,-1305.25 130.5,-1305.25 130.5,-1305.25 227.5,-1305.25 227.5,-1305.25 233.5,-1305.25 239.5,-1311.25 239.5,-1317.25 239.5,-1317.25 239.5,-1329.25 239.5,-1329.25 239.5,-1335.25 233.5,-1341.25 227.5,-1341.25"/>
<text xml:space="preserve" text-anchor="middle" x="179" y="-1319" font-family="Consolas" font-size="10.00">VulkanEngine::init()</text>
</g>
<!-- B -->
<g id="node2" class="node">
<title>B</title>
<path fill="#f7faff" stroke="#6a7a99" d="M222.25,-1268.25C222.25,-1268.25 135.75,-1268.25 135.75,-1268.25 129.75,-1268.25 123.75,-1262.25 123.75,-1256.25 123.75,-1256.25 123.75,-1244.25 123.75,-1244.25 123.75,-1238.25 129.75,-1232.25 135.75,-1232.25 135.75,-1232.25 222.25,-1232.25 222.25,-1232.25 228.25,-1232.25 234.25,-1238.25 234.25,-1244.25 234.25,-1244.25 234.25,-1256.25 234.25,-1256.25 234.25,-1262.25 228.25,-1268.25 222.25,-1268.25"/>
<text xml:space="preserve" text-anchor="middle" x="179" y="-1246" font-family="Consolas" font-size="10.00">init_renderables()</text>
</g>
<!-- A&#45;&gt;B -->
<g id="edge1" class="edge">
<title>A&#45;&gt;B</title>
<path fill="none" stroke="#5e6a82" d="M179,-1305.06C179,-1296.52 179,-1286.02 179,-1276.57"/>
<polygon fill="#5e6a82" stroke="#5e6a82" points="181.45,-1276.79 179,-1269.79 176.55,-1276.79 181.45,-1276.79"/>
</g>
<!-- C -->
<g id="node3" class="node">
<title>C</title>
<path fill="#f7faff" stroke="#6a7a99" d="M243.25,-1195.25C243.25,-1195.25 114.75,-1195.25 114.75,-1195.25 108.75,-1195.25 102.75,-1189.25 102.75,-1183.25 102.75,-1183.25 102.75,-1171.25 102.75,-1171.25 102.75,-1165.25 108.75,-1159.25 114.75,-1159.25 114.75,-1159.25 243.25,-1159.25 243.25,-1159.25 249.25,-1159.25 255.25,-1165.25 255.25,-1171.25 255.25,-1171.25 255.25,-1183.25 255.25,-1183.25 255.25,-1189.25 249.25,-1195.25 243.25,-1195.25"/>
<text xml:space="preserve" text-anchor="middle" x="179" y="-1173" font-family="Consolas" font-size="10.00">RenderSystem ctor + init()</text>
</g>
<!-- B&#45;&gt;C -->
<g id="edge2" class="edge">
<title>B&#45;&gt;C</title>
<path fill="none" stroke="#5e6a82" d="M179,-1232.06C179,-1223.52 179,-1213.02 179,-1203.57"/>
<polygon fill="#5e6a82" stroke="#5e6a82" points="181.45,-1203.79 179,-1196.79 176.55,-1203.79 181.45,-1203.79"/>
</g>
<!-- D -->
<g id="node4" class="node">
<title>D</title>
<path fill="#f7faff" stroke="#6a7a99" d="M245.88,-1122.25C245.88,-1122.25 112.12,-1122.25 112.12,-1122.25 106.12,-1122.25 100.12,-1116.25 100.12,-1110.25 100.12,-1110.25 100.12,-1098.25 100.12,-1098.25 100.12,-1092.25 106.12,-1086.25 112.12,-1086.25 112.12,-1086.25 245.88,-1086.25 245.88,-1086.25 251.88,-1086.25 257.88,-1092.25 257.88,-1098.25 257.88,-1098.25 257.88,-1110.25 257.88,-1110.25 257.88,-1116.25 251.88,-1122.25 245.88,-1122.25"/>
<text xml:space="preserve" text-anchor="middle" x="179" y="-1100" font-family="Consolas" font-size="10.00">resizeRenderTargets(extent)</text>
</g>
<!-- C&#45;&gt;D -->
<g id="edge3" class="edge">
<title>C&#45;&gt;D</title>
<path fill="none" stroke="#5e6a82" d="M179,-1159.06C179,-1150.52 179,-1140.02 179,-1130.57"/>
<polygon fill="#5e6a82" stroke="#5e6a82" points="181.45,-1130.79 179,-1123.79 176.55,-1130.79 181.45,-1130.79"/>
</g>
<!-- E -->
<g id="node5" class="node">
<title>E</title>
<path fill="#f7faff" stroke="#6a7a99" d="M269.5,-1049.25C269.5,-1049.25 88.5,-1049.25 88.5,-1049.25 82.5,-1049.25 76.5,-1043.25 76.5,-1037.25 76.5,-1037.25 76.5,-1025.25 76.5,-1025.25 76.5,-1019.25 82.5,-1013.25 88.5,-1013.25 88.5,-1013.25 269.5,-1013.25 269.5,-1013.25 275.5,-1013.25 281.5,-1019.25 281.5,-1025.25 281.5,-1025.25 281.5,-1037.25 281.5,-1037.25 281.5,-1043.25 275.5,-1049.25 269.5,-1049.25"/>
<text xml:space="preserve" text-anchor="middle" x="179" y="-1027" font-family="Consolas" font-size="10.00">create _color_target / _depth_target</text>
</g>
<!-- D&#45;&gt;E -->
<g id="edge4" class="edge">
<title>D&#45;&gt;E</title>
<path fill="none" stroke="#5e6a82" d="M179,-1086.06C179,-1077.52 179,-1067.02 179,-1057.57"/>
<polygon fill="#5e6a82" stroke="#5e6a82" points="181.45,-1057.79 179,-1050.79 176.55,-1057.79 181.45,-1057.79"/>
</g>
<!-- F -->
<g id="node6" class="node">
<title>F</title>
<path fill="#f7faff" stroke="#6a7a99" d="M243.25,-976.25C243.25,-976.25 114.75,-976.25 114.75,-976.25 108.75,-976.25 102.75,-970.25 102.75,-964.25 102.75,-964.25 102.75,-952.25 102.75,-952.25 102.75,-946.25 108.75,-940.25 114.75,-940.25 114.75,-940.25 243.25,-940.25 243.25,-940.25 249.25,-940.25 255.25,-946.25 255.25,-952.25 255.25,-952.25 255.25,-964.25 255.25,-964.25 255.25,-970.25 249.25,-976.25 243.25,-976.25"/>
<text xml:space="preserve" text-anchor="middle" x="179" y="-954" font-family="Consolas" font-size="10.00">RenderSystem::buildGraph()</text>
</g>
<!-- E&#45;&gt;F -->
<g id="edge5" class="edge">
<title>E&#45;&gt;F</title>
<path fill="none" stroke="#5e6a82" d="M179,-1013.06C179,-1004.52 179,-994.02 179,-984.57"/>
<polygon fill="#5e6a82" stroke="#5e6a82" points="181.45,-984.79 179,-977.79 176.55,-984.79 181.45,-984.79"/>
</g>
<!-- G -->
<g id="node7" class="node">
<title>G</title>
<path fill="#f7faff" stroke="#6a7a99" d="M259,-903.25C259,-903.25 99,-903.25 99,-903.25 93,-903.25 87,-897.25 87,-891.25 87,-891.25 87,-879.25 87,-879.25 87,-873.25 93,-867.25 99,-867.25 99,-867.25 259,-867.25 259,-867.25 265,-867.25 271,-873.25 271,-879.25 271,-879.25 271,-891.25 271,-891.25 271,-897.25 265,-903.25 259,-903.25"/>
<text xml:space="preserve" text-anchor="middle" x="179" y="-886.25" font-family="Consolas" font-size="10.00">reset graph state</text>
<text xml:space="preserve" text-anchor="middle" x="179" y="-875.75" font-family="Consolas" font-size="10.00">(_graph, flags, named resources)</text>
</g>
<!-- F&#45;&gt;G -->
<g id="edge6" class="edge">
<title>F&#45;&gt;G</title>
<path fill="none" stroke="#5e6a82" d="M179,-940.06C179,-931.52 179,-921.02 179,-911.57"/>
<polygon fill="#5e6a82" stroke="#5e6a82" points="181.45,-911.79 179,-904.79 176.55,-911.79 181.45,-911.79"/>
</g>
<!-- H -->
<g id="node8" class="node">
<title>H</title>
<path fill="#f7faff" stroke="#6a7a99" d="M230.12,-830.25C230.12,-830.25 127.88,-830.25 127.88,-830.25 121.88,-830.25 115.88,-824.25 115.88,-818.25 115.88,-818.25 115.88,-806.25 115.88,-806.25 115.88,-800.25 121.88,-794.25 127.88,-794.25 127.88,-794.25 230.12,-794.25 230.12,-794.25 236.12,-794.25 242.12,-800.25 242.12,-806.25 242.12,-806.25 242.12,-818.25 242.12,-818.25 242.12,-824.25 236.12,-830.25 230.12,-830.25"/>
<text xml:space="preserve" text-anchor="middle" x="179" y="-808" font-family="Consolas" font-size="10.00">buildGraphFromAsset()</text>
</g>
<!-- G&#45;&gt;H -->
<g id="edge7" class="edge">
<title>G&#45;&gt;H</title>
<path fill="none" stroke="#5e6a82" d="M179,-867.06C179,-858.52 179,-848.02 179,-838.57"/>
<polygon fill="#5e6a82" stroke="#5e6a82" points="181.45,-838.79 179,-831.79 176.55,-838.79 181.45,-838.79"/>
</g>
<!-- I -->
<g id="node9" class="node">
<title>I</title>
<path fill="#f7faff" stroke="#6a7a99" d="M209.5,-741.75C209.5,-741.75 28.5,-741.75 28.5,-741.75 22.5,-741.75 16.5,-735.75 16.5,-729.75 16.5,-729.75 16.5,-717.75 16.5,-717.75 16.5,-711.75 22.5,-705.75 28.5,-705.75 28.5,-705.75 209.5,-705.75 209.5,-705.75 215.5,-705.75 221.5,-711.75 221.5,-717.75 221.5,-717.75 221.5,-729.75 221.5,-729.75 221.5,-735.75 215.5,-741.75 209.5,-741.75"/>
<text xml:space="preserve" text-anchor="middle" x="119" y="-719.5" font-family="Consolas" font-size="10.00">load assets/config/render_graph.json</text>
</g>
<!-- H&#45;&gt;I -->
<g id="edge8" class="edge">
<title>H&#45;&gt;I</title>
<path fill="none" stroke="#5e6a82" d="M167.15,-794.16C158.17,-781.21 145.71,-763.26 135.72,-748.85"/>
<polygon fill="#5e6a82" stroke="#5e6a82" points="137.9,-747.7 131.9,-743.34 133.87,-750.49 137.9,-747.7"/>
</g>
<!-- O -->
<g id="node15" class="node">
<title>O</title>
<path fill="#f7faff" stroke="#6a7a99" d="M338.25,-741.75C338.25,-741.75 251.75,-741.75 251.75,-741.75 245.75,-741.75 239.75,-735.75 239.75,-729.75 239.75,-729.75 239.75,-717.75 239.75,-717.75 239.75,-711.75 245.75,-705.75 251.75,-705.75 251.75,-705.75 338.25,-705.75 338.25,-705.75 344.25,-705.75 350.25,-711.75 350.25,-717.75 350.25,-717.75 350.25,-729.75 350.25,-729.75 350.25,-735.75 344.25,-741.75 338.25,-741.75"/>
<text xml:space="preserve" text-anchor="middle" x="295" y="-719.5" font-family="Consolas" font-size="10.00">buildGraphLegacy()</text>
</g>
<!-- H&#45;&gt;O -->
<g id="edge14" class="edge">
<title>H&#45;&gt;O</title>
<path fill="none" stroke="#5e6a82" d="M202.2,-793.95C220.29,-780.46 245.57,-761.61 265.17,-747"/>
<polygon fill="#5e6a82" stroke="#5e6a82" points="266.48,-749.07 270.63,-742.92 263.56,-745.14 266.48,-749.07"/>
<text xml:space="preserve" text-anchor="middle" x="315.26" y="-762.95" font-family="Times New Roman,serif" font-size="14.00">asset load/compile failed</text>
</g>
<!-- J -->
<g id="node10" class="node">
<title>J</title>
<path fill="#f7faff" stroke="#6a7a99" d="M140.38,-667C140.38,-667 27.62,-667 27.62,-667 21.62,-667 15.62,-661 15.62,-655 15.62,-655 15.62,-643 15.62,-643 15.62,-637 21.62,-631 27.62,-631 27.62,-631 140.38,-631 140.38,-631 146.38,-631 152.38,-637 152.38,-643 152.38,-643 152.38,-655 152.38,-655 152.38,-661 146.38,-667 140.38,-667"/>
<text xml:space="preserve" text-anchor="middle" x="84" y="-650" font-family="Consolas" font-size="10.00">GraphAssetIO parse</text>
<text xml:space="preserve" text-anchor="middle" x="84" y="-639.5" font-family="Consolas" font-size="10.00">(resources/nodes/edges)</text>
</g>
<!-- I&#45;&gt;J -->
<g id="edge9" class="edge">
<title>I&#45;&gt;J</title>
<path fill="none" stroke="#5e6a82" d="M110.71,-705.51C106.29,-696.33 100.79,-684.89 95.92,-674.78"/>
<polygon fill="#5e6a82" stroke="#5e6a82" points="98.26,-673.98 93.01,-668.73 93.84,-676.1 98.26,-673.98"/>
</g>
<!-- K -->
<g id="node11" class="node">
<title>K</title>
<path fill="#f7faff" stroke="#6a7a99" d="M202.12,-592.25C202.12,-592.25 57.88,-592.25 57.88,-592.25 51.88,-592.25 45.88,-586.25 45.88,-580.25 45.88,-580.25 45.88,-568.25 45.88,-568.25 45.88,-562.25 51.88,-556.25 57.88,-556.25 57.88,-556.25 202.12,-556.25 202.12,-556.25 208.12,-556.25 214.12,-562.25 214.12,-568.25 214.12,-568.25 214.12,-580.25 214.12,-580.25 214.12,-586.25 208.12,-592.25 202.12,-592.25"/>
<text xml:space="preserve" text-anchor="middle" x="130" y="-575.25" font-family="Consolas" font-size="10.00">compileGraphAsset</text>
<text xml:space="preserve" text-anchor="middle" x="130" y="-564.75" font-family="Consolas" font-size="10.00">(validate + topo + inputPins)</text>
</g>
<!-- J&#45;&gt;K -->
<g id="edge10" class="edge">
<title>J&#45;&gt;K</title>
<path fill="none" stroke="#5e6a82" d="M94.9,-630.76C100.76,-621.49 108.08,-609.92 114.52,-599.73"/>
<polygon fill="#5e6a82" stroke="#5e6a82" points="116.54,-601.12 118.21,-593.9 112.4,-598.51 116.54,-601.12"/>
</g>
<!-- L -->
<g id="node12" class="node">
<title>L</title>
<path fill="#f7faff" stroke="#6a7a99" d="M208.5,-519.25C208.5,-519.25 69.5,-519.25 69.5,-519.25 63.5,-519.25 57.5,-513.25 57.5,-507.25 57.5,-507.25 57.5,-495.25 57.5,-495.25 57.5,-489.25 63.5,-483.25 69.5,-483.25 69.5,-483.25 208.5,-483.25 208.5,-483.25 214.5,-483.25 220.5,-489.25 220.5,-495.25 220.5,-495.25 220.5,-507.25 220.5,-507.25 220.5,-513.25 214.5,-519.25 208.5,-519.25"/>
<text xml:space="preserve" text-anchor="middle" x="139" y="-502.25" font-family="Consolas" font-size="10.00">addAssetImageResourcesTask()</text>
<text xml:space="preserve" text-anchor="middle" x="139" y="-491.75" font-family="Consolas" font-size="10.00">create/bind image resources</text>
</g>
<!-- K&#45;&gt;L -->
<g id="edge11" class="edge">
<title>K&#45;&gt;L</title>
<path fill="none" stroke="#5e6a82" d="M132.18,-556.06C133.26,-547.52 134.59,-537.02 135.79,-527.57"/>
<polygon fill="#5e6a82" stroke="#5e6a82" points="138.2,-528.03 136.65,-520.78 133.34,-527.42 138.2,-528.03"/>
</g>
<!-- M -->
<g id="node13" class="node">
<title>M</title>
<path fill="#f7faff" stroke="#6a7a99" d="M208.62,-446.25C208.62,-446.25 85.38,-446.25 85.38,-446.25 79.38,-446.25 73.38,-440.25 73.38,-434.25 73.38,-434.25 73.38,-418.75 73.38,-418.75 73.38,-412.75 79.38,-406.75 85.38,-406.75 85.38,-406.75 208.62,-406.75 208.62,-406.75 214.62,-406.75 220.62,-412.75 220.62,-418.75 220.62,-418.75 220.62,-434.25 220.62,-434.25 220.62,-440.25 214.62,-446.25 208.62,-446.25"/>
<text xml:space="preserve" text-anchor="middle" x="147" y="-432.75" font-family="Consolas" font-size="10.00">iterate compiled nodes</text>
<text xml:space="preserve" text-anchor="middle" x="147" y="-422.25" font-family="Consolas" font-size="10.00">resolve color_in/depth_in</text>
<text xml:space="preserve" text-anchor="middle" x="147" y="-411.75" font-family="Consolas" font-size="10.00">register pass tasks</text>
</g>
<!-- L&#45;&gt;M -->
<g id="edge12" class="edge">
<title>L&#45;&gt;M</title>
<path fill="none" stroke="#5e6a82" d="M140.9,-483.01C141.82,-474.65 142.94,-464.39 143.98,-454.99"/>
<polygon fill="#5e6a82" stroke="#5e6a82" points="146.4,-455.4 144.73,-448.17 141.53,-454.86 146.4,-455.4"/>
</g>
<!-- N -->
<g id="node14" class="node">
<title>N</title>
<path fill="#f7faff" stroke="#6a7a99" d="M204.25,-369.75C204.25,-369.75 117.75,-369.75 117.75,-369.75 111.75,-369.75 105.75,-363.75 105.75,-357.75 105.75,-357.75 105.75,-342.25 105.75,-342.25 105.75,-336.25 111.75,-330.25 117.75,-330.25 117.75,-330.25 204.25,-330.25 204.25,-330.25 210.25,-330.25 216.25,-336.25 216.25,-342.25 216.25,-342.25 216.25,-357.75 216.25,-357.75 216.25,-363.75 210.25,-369.75 204.25,-369.75"/>
<text xml:space="preserve" text-anchor="middle" x="161" y="-356.25" font-family="Consolas" font-size="10.00">_graph.compile();</text>
<text xml:space="preserve" text-anchor="middle" x="161" y="-345.75" font-family="Consolas" font-size="10.00">_graph_built=true;</text>
<text xml:space="preserve" text-anchor="middle" x="161" y="-335.25" font-family="Consolas" font-size="10.00">_compiled=true</text>
</g>
<!-- M&#45;&gt;N -->
<g id="edge13" class="edge">
<title>M&#45;&gt;N</title>
<path fill="none" stroke="#5e6a82" d="M150.61,-406.31C152.21,-397.8 154.12,-387.62 155.86,-378.33"/>
<polygon fill="#5e6a82" stroke="#5e6a82" points="158.24,-378.94 157.13,-371.61 153.43,-378.04 158.24,-378.94"/>
</g>
<!-- Q -->
<g id="node17" class="node">
<title>Q</title>
<path fill="#f7faff" stroke="#6a7a99" d="M288.62,-274.5C288.62,-274.5 165.38,-274.5 165.38,-274.5 159.38,-274.5 153.38,-268.5 153.38,-262.5 153.38,-262.5 153.38,-250.5 153.38,-250.5 153.38,-244.5 159.38,-238.5 165.38,-238.5 165.38,-238.5 288.62,-238.5 288.62,-238.5 294.62,-238.5 300.62,-244.5 300.62,-250.5 300.62,-250.5 300.62,-262.5 300.62,-262.5 300.62,-268.5 294.62,-274.5 288.62,-274.5"/>
<text xml:space="preserve" text-anchor="middle" x="227" y="-257.5" font-family="Consolas" font-size="10.00">VulkanEngine::draw_main()</text>
<text xml:space="preserve" text-anchor="middle" x="227" y="-247" font-family="Consolas" font-size="10.00">create RenderGraphContext</text>
</g>
<!-- N&#45;&gt;Q -->
<g id="edge16" class="edge">
<title>N&#45;&gt;Q</title>
<path fill="none" stroke="#5e6a82" d="M174.68,-330.04C184.83,-315.97 198.74,-296.68 209.67,-281.52"/>
<polygon fill="#5e6a82" stroke="#5e6a82" points="211.47,-283.23 213.57,-276.11 207.49,-280.36 211.47,-283.23"/>
</g>
<!-- P -->
<g id="node16" class="node">
<title>P</title>
<path fill="#f7faff" stroke="#6a7a99" d="M363.5,-668.75C363.5,-668.75 182.5,-668.75 182.5,-668.75 176.5,-668.75 170.5,-662.75 170.5,-656.75 170.5,-656.75 170.5,-641.25 170.5,-641.25 170.5,-635.25 176.5,-629.25 182.5,-629.25 182.5,-629.25 363.5,-629.25 363.5,-629.25 369.5,-629.25 375.5,-635.25 375.5,-641.25 375.5,-641.25 375.5,-656.75 375.5,-656.75 375.5,-662.75 369.5,-668.75 363.5,-668.75"/>
<text xml:space="preserve" text-anchor="middle" x="273" y="-655.25" font-family="Consolas" font-size="10.00">addRenderTargetResourcesTask + clear</text>
<text xml:space="preserve" text-anchor="middle" x="273" y="-644.75" font-family="Consolas" font-size="10.00">register built&#45;in passes</text>
<text xml:space="preserve" text-anchor="middle" x="273" y="-634.25" font-family="Consolas" font-size="10.00">_graph.compile()</text>
</g>
<!-- O&#45;&gt;P -->
<g id="edge15" class="edge">
<title>O&#45;&gt;P</title>
<path fill="none" stroke="#5e6a82" d="M289.79,-705.51C287.23,-697.06 284.09,-686.68 281.23,-677.2"/>
<polygon fill="#5e6a82" stroke="#5e6a82" points="283.61,-676.6 279.23,-670.61 278.91,-678.02 283.61,-676.6"/>
</g>
<!-- P&#45;&gt;Q -->
<g id="edge17" class="edge">
<title>P&#45;&gt;Q</title>
<path fill="none" stroke="#5e6a82" d="M266.4,-628.8C261.99,-614.28 257,-593.74 257,-575.25 257,-575.25 257,-575.25 257,-349 257,-325.45 247.92,-300.11 239.74,-282.08"/>
<polygon fill="#5e6a82" stroke="#5e6a82" points="242.17,-281.49 236.97,-276.2 237.74,-283.58 242.17,-281.49"/>
</g>
<!-- R -->
<g id="node18" class="node">
<title>R</title>
<path fill="#f7faff" stroke="#6a7a99" d="M291.25,-201.5C291.25,-201.5 162.75,-201.5 162.75,-201.5 156.75,-201.5 150.75,-195.5 150.75,-189.5 150.75,-189.5 150.75,-177.5 150.75,-177.5 150.75,-171.5 156.75,-165.5 162.75,-165.5 162.75,-165.5 291.25,-165.5 291.25,-165.5 297.25,-165.5 303.25,-171.5 303.25,-177.5 303.25,-177.5 303.25,-189.5 303.25,-189.5 303.25,-195.5 297.25,-201.5 291.25,-201.5"/>
<text xml:space="preserve" text-anchor="middle" x="227" y="-179.25" font-family="Consolas" font-size="10.00">RenderSystem::execute(ctx)</text>
</g>
<!-- Q&#45;&gt;R -->
<g id="edge18" class="edge">
<title>Q&#45;&gt;R</title>
<path fill="none" stroke="#5e6a82" d="M227,-238.31C227,-229.77 227,-219.27 227,-209.82"/>
<polygon fill="#5e6a82" stroke="#5e6a82" points="229.45,-210.04 227,-203.04 224.55,-210.04 229.45,-210.04"/>
</g>
<!-- S -->
<g id="node19" class="node">
<title>S</title>
<path fill="#f7faff" stroke="#6a7a99" d="M309.62,-128.5C309.62,-128.5 144.38,-128.5 144.38,-128.5 138.38,-128.5 132.38,-122.5 132.38,-116.5 132.38,-116.5 132.38,-104.5 132.38,-104.5 132.38,-98.5 138.38,-92.5 144.38,-92.5 144.38,-92.5 309.62,-92.5 309.62,-92.5 315.62,-92.5 321.62,-98.5 321.62,-104.5 321.62,-104.5 321.62,-116.5 321.62,-116.5 321.62,-122.5 315.62,-128.5 309.62,-128.5"/>
<text xml:space="preserve" text-anchor="middle" x="227" y="-111.5" font-family="Consolas" font-size="10.00">if !_graph_built =&gt; buildGraph()</text>
<text xml:space="preserve" text-anchor="middle" x="227" y="-101" font-family="Consolas" font-size="10.00">if !_compiled =&gt; _graph.compile()</text>
</g>
<!-- R&#45;&gt;S -->
<g id="edge19" class="edge">
<title>R&#45;&gt;S</title>
<path fill="none" stroke="#5e6a82" d="M227,-165.31C227,-156.77 227,-146.27 227,-136.82"/>
<polygon fill="#5e6a82" stroke="#5e6a82" points="229.45,-137.04 227,-130.04 224.55,-137.04 229.45,-137.04"/>
</g>
<!-- T -->
<g id="node20" class="node">
<title>T</title>
<path fill="#f7faff" stroke="#6a7a99" d="M317.5,-55.5C317.5,-55.5 136.5,-55.5 136.5,-55.5 130.5,-55.5 124.5,-49.5 124.5,-43.5 124.5,-43.5 124.5,-28 124.5,-28 124.5,-22 130.5,-16 136.5,-16 136.5,-16 317.5,-16 317.5,-16 323.5,-16 329.5,-22 329.5,-28 329.5,-28 329.5,-43.5 329.5,-43.5 329.5,-49.5 323.5,-55.5 317.5,-55.5"/>
<text xml:space="preserve" text-anchor="middle" x="227" y="-42" font-family="Consolas" font-size="10.00">RenderGraph::execute(ctx)</text>
<text xml:space="preserve" text-anchor="middle" x="227" y="-31.5" font-family="Consolas" font-size="10.00">for timeline:</text>
<text xml:space="preserve" text-anchor="middle" x="227" y="-21" font-family="Consolas" font-size="10.00">realize &#45;&gt; task.execute &#45;&gt; derealize</text>
</g>
<!-- S&#45;&gt;T -->
<g id="edge20" class="edge">
<title>S&#45;&gt;T</title>
<path fill="none" stroke="#5e6a82" d="M227,-92.26C227,-83.9 227,-73.64 227,-64.24"/>
<polygon fill="#5e6a82" stroke="#5e6a82" points="229.45,-64.43 227,-57.43 224.55,-64.43 229.45,-64.43"/>
</g>
</g>
</svg>
